<svg width="20" height="20" viewBox="0 0 20 20" fill="none" xmlns="http://www.w3.org/2000/svg">
<path d="M9.5 4.35188C11.5025 4.35188 11.74 4.35937 12.5312 4.39562C14.5637 4.48812 15.5131 5.4525 15.6056 7.47C15.6419 8.26062 15.6487 8.49812 15.6487 10.5006C15.6487 12.5037 15.6412 12.7406 15.6056 13.5312C15.5125 15.5469 14.5656 16.5131 12.5312 16.6056C11.74 16.6419 11.5037 16.6494 9.5 16.6494C7.4975 16.6494 7.26 16.6419 6.46937 16.6056C4.43187 16.5125 3.4875 15.5438 3.395 13.5306C3.35875 12.74 3.35125 12.5031 3.35125 10.5C3.35125 8.4975 3.35937 8.26062 3.395 7.46937C3.48812 5.4525 4.435 4.4875 6.46937 4.395C7.26062 4.35937 7.4975 4.35188 9.5 4.35188ZM9.5 3C7.46313 3 7.20812 3.00875 6.40812 3.045C3.68437 3.17 2.17062 4.68125 2.04562 7.4075C2.00875 8.20812 2 8.46313 2 10.5C2 12.5369 2.00875 12.7925 2.045 13.5925C2.17 16.3162 3.68125 17.83 6.4075 17.955C7.20812 17.9912 7.46313 18 9.5 18C11.5369 18 11.7925 17.9912 12.5925 17.955C15.3137 17.83 16.8312 16.3187 16.9544 13.5925C16.9912 12.7925 17 12.5369 17 10.5C17 8.46313 16.9912 8.20812 16.955 7.40812C16.8325 4.68687 15.3194 3.17062 12.5931 3.04562C11.7925 3.00875 11.5369 3 9.5 3ZM9.5 6.64875C7.37312 6.64875 5.64875 8.37312 5.64875 10.5C5.64875 12.6269 7.37312 14.3519 9.5 14.3519C11.6269 14.3519 13.3512 12.6275 13.3512 10.5C13.3512 8.37312 11.6269 6.64875 9.5 6.64875ZM9.5 13C8.11937 13 7 11.8812 7 10.5C7 9.11937 8.11937 8 9.5 8C10.8806 8 12 9.11937 12 10.5C12 11.8812 10.8806 13 9.5 13ZM13.5037 5.59688C13.0062 5.59688 12.6031 6 12.6031 6.49687C12.6031 6.99375 13.0062 7.39687 13.5037 7.39687C14.0006 7.39687 14.4031 6.99375 14.4031 6.49687C14.4031 6 14.0006 5.59688 13.5037 5.59688Z" fill="#8BAC3E"/>
</svg>
